<svg width="2289" height="587" viewBox="0 0 2289 587" fill="none" xmlns="http://www.w3.org/2000/svg">
<path d="M856.986 447.569H808.211L697.77 280.688V447.569H648.994V204.041H697.77L808.211 371.271V204.041H856.986V447.569ZM1084.61 346.883C1084.61 353.851 1084.15 360.122 1083.22 365.697H942.117C943.278 379.632 948.156 390.549 956.749 398.446C965.343 406.343 975.911 410.291 988.453 410.291C1006.57 410.291 1019.46 402.51 1027.13 386.949H1079.73C1074.16 405.53 1063.47 420.859 1047.68 432.937C1031.89 444.782 1012.49 450.705 989.498 450.705C970.917 450.705 954.194 446.64 939.33 438.511C924.697 430.15 913.2 418.42 904.839 403.323C896.709 388.226 892.645 370.806 892.645 351.064C892.645 331.089 896.709 313.553 904.839 298.456C912.968 283.359 924.349 271.746 938.981 263.617C953.614 255.488 970.453 251.423 989.498 251.423C1007.85 251.423 1024.22 255.372 1038.62 263.269C1053.25 271.165 1064.52 282.43 1072.42 297.063C1080.55 311.463 1084.61 328.07 1084.61 346.883ZM1034.09 332.947C1033.86 320.405 1029.33 310.418 1020.51 302.986C1011.68 295.321 1000.88 291.488 988.105 291.488C976.027 291.488 965.808 295.205 957.446 302.637C949.317 309.837 944.323 319.941 942.465 332.947H1034.09ZM1107.67 350.367C1107.67 330.857 1111.5 313.553 1119.17 298.456C1127.06 283.359 1137.63 271.746 1150.87 263.617C1164.34 255.488 1179.32 251.423 1195.81 251.423C1210.21 251.423 1222.76 254.326 1233.44 260.133C1244.36 265.94 1253.07 273.256 1259.57 282.082V254.559H1308.69V447.569H1259.57V419.349C1253.3 428.408 1244.59 435.956 1233.44 441.995C1222.52 447.802 1209.87 450.705 1195.47 450.705C1179.21 450.705 1164.34 446.524 1150.87 438.163C1137.63 429.801 1127.06 418.072 1119.17 402.975C1111.5 387.645 1107.67 370.11 1107.67 350.367ZM1259.57 351.064C1259.57 339.219 1257.25 329.115 1252.6 320.754C1247.96 312.16 1241.69 305.657 1233.79 301.244C1225.89 296.598 1217.41 294.276 1208.36 294.276C1199.3 294.276 1190.94 296.482 1183.27 300.895C1175.61 305.308 1169.34 311.812 1164.46 320.405C1159.81 328.767 1157.49 338.754 1157.49 350.367C1157.49 361.98 1159.81 372.2 1164.46 381.026C1169.34 389.62 1175.61 396.239 1183.27 400.884C1191.17 405.53 1199.53 407.852 1208.36 407.852C1217.41 407.852 1225.89 405.646 1233.79 401.233C1241.69 396.588 1247.96 390.084 1252.6 381.723C1257.25 373.129 1259.57 362.909 1259.57 351.064ZM1405.11 284.521C1411.38 274.301 1419.51 266.288 1429.49 260.481C1439.71 254.675 1451.33 251.771 1464.33 251.771V302.986H1451.44C1436.11 302.986 1424.5 306.586 1416.6 313.786C1408.94 320.986 1405.11 333.528 1405.11 351.412V447.569H1356.33V254.559H1405.11V284.521Z" fill="#030303"/>
<path d="M1545.96 408.898H1626.09V447.569H1497.19V204.39H1545.96V408.898ZM1742.8 450.705C1724.22 450.705 1707.49 446.64 1692.63 438.511C1677.76 430.15 1666.04 418.42 1657.44 403.323C1649.08 388.226 1644.9 370.806 1644.9 351.064C1644.9 331.322 1649.2 313.902 1657.79 298.805C1666.62 283.708 1678.58 272.095 1693.68 263.965C1708.77 255.604 1725.61 251.423 1744.19 251.423C1762.77 251.423 1779.61 255.604 1794.71 263.965C1809.81 272.095 1821.65 283.708 1830.25 298.805C1839.07 313.902 1843.48 331.322 1843.48 351.064C1843.48 370.806 1838.96 388.226 1829.9 403.323C1821.07 418.42 1808.99 430.15 1793.66 438.511C1778.57 446.64 1761.61 450.705 1742.8 450.705ZM1742.8 408.201C1751.62 408.201 1759.87 406.11 1767.53 401.93C1775.43 397.517 1781.7 391.013 1786.35 382.42C1790.99 373.826 1793.32 363.374 1793.32 351.064C1793.32 332.715 1788.44 318.663 1778.68 308.908C1769.16 298.921 1757.43 293.927 1743.5 293.927C1729.56 293.927 1717.83 298.921 1708.31 308.908C1699.02 318.663 1694.37 332.715 1694.37 351.064C1694.37 369.413 1698.9 383.581 1707.96 393.568C1717.25 403.323 1728.86 408.201 1742.8 408.201ZM1964.97 450.705C1946.39 450.705 1929.66 446.64 1914.8 438.511C1899.93 430.15 1888.21 418.42 1879.61 403.323C1871.25 388.226 1867.07 370.806 1867.07 351.064C1867.07 331.322 1871.37 313.902 1879.96 298.805C1888.79 283.708 1900.75 272.095 1915.84 263.965C1930.94 255.604 1947.78 251.423 1966.36 251.423C1984.94 251.423 2001.78 255.604 2016.88 263.965C2031.98 272.095 2043.82 283.708 2052.42 298.805C2061.24 313.902 2065.65 331.322 2065.65 351.064C2065.65 370.806 2061.13 388.226 2052.07 403.323C2043.24 418.42 2031.16 430.15 2015.83 438.511C2000.74 446.64 1983.78 450.705 1964.97 450.705ZM1964.97 408.201C1973.79 408.201 1982.04 406.11 1989.7 401.93C1997.6 397.517 2003.87 391.013 2008.52 382.42C2013.16 373.826 2015.49 363.374 2015.49 351.064C2015.49 332.715 2010.61 318.663 2000.85 308.908C1991.33 298.921 1979.6 293.927 1965.67 293.927C1951.73 293.927 1940 298.921 1930.48 308.908C1921.19 318.663 1916.54 332.715 1916.54 351.064C1916.54 369.413 1921.07 383.581 1930.13 393.568C1939.42 403.323 1951.03 408.201 1964.97 408.201ZM2088.89 351.064C2088.89 331.089 2092.96 313.67 2101.08 298.805C2109.21 283.708 2120.48 272.095 2134.88 263.965C2149.28 255.604 2165.77 251.423 2184.35 251.423C2208.27 251.423 2228.02 257.462 2243.58 269.54C2259.37 281.385 2269.94 298.108 2275.28 319.708H2222.67C2219.89 311.347 2215.13 304.844 2208.39 300.198C2201.89 295.321 2193.76 292.882 2184 292.882C2170.07 292.882 2159.03 297.992 2150.9 308.211C2142.78 318.199 2138.71 332.483 2138.71 351.064C2138.71 369.413 2142.78 383.697 2150.9 393.917C2159.03 403.904 2170.07 408.898 2184 408.898C2203.74 408.898 2216.64 400.072 2222.67 382.42H2275.28C2269.94 403.323 2259.37 419.93 2243.58 432.24C2227.78 444.55 2208.04 450.705 2184.35 450.705C2165.77 450.705 2149.28 446.64 2134.88 438.511C2120.48 430.15 2109.21 418.536 2101.08 403.672C2092.96 388.574 2088.89 371.039 2088.89 351.064Z" fill="#179C6F"/>
<path d="M263.703 314.944L219.316 279.241C213.681 274.709 205.493 275.338 200.618 280.679L186.8 295.812C183.184 299.773 182.966 305.77 186.287 309.982L263.15 407.495C267.702 413.269 276.536 413.011 280.742 406.981L427.056 197.221L280.878 314.939C275.865 318.976 268.718 318.978 263.703 314.944Z" fill="#179C6F"/>
<path d="M340.346 150.53C340.346 161.12 348.93 169.704 359.52 169.704C370.109 169.704 378.694 161.12 378.694 150.53V117.784H495.672L541.738 481.756C547.744 529.207 510.761 571.166 462.932 571.166H79.4493C31.4305 571.166 -5.60943 528.89 0.702222 481.288L48.9014 117.784H162.282V150.53C162.282 161.12 170.868 169.704 181.457 169.704C192.047 169.704 200.631 161.12 200.631 150.53V117.784H340.346V150.53ZM356.648 238.654C334.798 216.457 304.46 202.701 270.921 202.701C204.358 202.701 150.398 256.877 150.398 323.705C150.398 390.533 191.485 417.208 270.921 547.837C329.813 452.959 391.444 390.533 391.444 323.705C391.444 307.398 388.23 291.845 382.405 277.648L468.142 153.395L356.648 238.654Z" fill="#179C6F"/>
<path d="M270.924 0C326.897 0 372.273 45.3757 372.273 101.349V149.285C372.273 156.093 366.754 161.611 359.947 161.611C353.139 161.611 347.621 156.093 347.621 149.285V101.349C347.621 58.9909 313.282 24.6526 270.924 24.6526C228.565 24.6526 194.227 58.9909 194.227 101.349V149.285C194.227 156.093 188.708 161.611 181.901 161.611C175.093 161.611 169.574 156.093 169.574 149.285V101.349C169.574 45.3757 214.95 0 270.924 0Z" fill="#179C6F"/>
</svg>
